# xmcd CD database file
#
# Track frame offsets:
#	150
#	34230
#	90615
#	139583
#
# Disc length: 2857 seconds
#
# Revision: 0
# Processed by: cddbd v1.4PL0 Copyright (c) Steve Scherf et al.
# Submitted via: CDex 1.50Beta5
#
DISCID=2c0b2704
DTITLE=Phil Woods - The Phil Woods Quartet/Quintet 20th Anniversary Set [CD4]
DYEAR=1900
DGENRE=Jazz
TTITLE0=September Song
TTITLE1=Weak End
TTITLE2=Goodbye Mr. Evans
TTITLE3=Chandek's Den
EXTD=
EXTT0=
EXTT1=
EXTT2=
EXTT3=
PLAYORDER=
